<svg width="312" height="33" viewBox="0 0 312 33" fill="none" xmlns="http://www.w3.org/2000/svg">
<path d="M13.84 32.56C9.33333 32.56 5.89333 31.3067 3.52 28.8C1.17333 26.2933 2.98023e-08 22.7333 2.98023e-08 18.12C2.98023e-08 15.8267 0.36 13.7867 1.08 12C1.8 10.1867 2.78667 8.66667 4.04 7.44C5.29333 6.18667 6.78667 5.24 8.52 4.6C10.2533 3.96 12.1333 3.64 14.16 3.64C15.3333 3.64 16.4 3.73333 17.36 3.92C18.32 4.08 19.16 4.28 19.88 4.52C20.6 4.73333 21.2 4.96 21.68 5.2C22.16 5.44 22.5067 5.62667 22.72 5.76L20.92 10.8C20.0667 10.3467 19.0667 9.96 17.92 9.64C16.8 9.32 15.52 9.16 14.08 9.16C13.12 9.16 12.1733 9.32 11.24 9.64C10.3333 9.96 9.52 10.48 8.8 11.2C8.10667 11.8933 7.54667 12.8 7.12 13.92C6.69333 15.04 6.48 16.4 6.48 18C6.48 19.28 6.61333 20.48 6.88 21.6C7.17333 22.6933 7.62667 23.64 8.24 24.44C8.88 25.24 9.70667 25.88 10.72 26.36C11.7333 26.8133 12.96 27.04 14.4 27.04C15.3067 27.04 16.12 26.9867 16.84 26.88C17.56 26.7733 18.2 26.6533 18.76 26.52C19.32 26.36 19.8133 26.1867 20.24 26C20.6667 25.8133 21.0533 25.64 21.4 25.48L23.12 30.48C22.24 31.0133 21 31.4933 19.4 31.92C17.8 32.3467 15.9467 32.56 13.84 32.56ZM43.1897 31.28C42.1764 31.5733 40.8697 31.84 39.2697 32.08C37.6697 32.3467 35.9897 32.48 34.2297 32.48C32.443 32.48 30.9497 32.24 29.7497 31.76C28.5764 31.28 27.643 30.6133 26.9497 29.76C26.2564 28.88 25.763 27.84 25.4697 26.64C25.1764 25.44 25.0297 24.12 25.0297 22.68V10.96H30.9897V21.96C30.9897 23.88 31.243 25.2667 31.7497 26.12C32.2564 26.9733 33.203 27.4 34.5897 27.4C35.0164 27.4 35.4697 27.3867 35.9497 27.36C36.4297 27.3067 36.8564 27.2533 37.2297 27.2V10.96H43.1897V31.28ZM56.1844 32.4C54.451 32.3733 53.0377 32.1867 51.9444 31.84C50.8777 31.4933 50.0244 31.0133 49.3844 30.4C48.771 29.76 48.3444 29 48.1044 28.12C47.891 27.2133 47.7844 26.2 47.7844 25.08V1.92L53.7444 0.959999V23.88C53.7444 24.4133 53.7844 24.8933 53.8644 25.32C53.9444 25.7467 54.091 26.1067 54.3044 26.4C54.5444 26.6933 54.8777 26.9333 55.3044 27.12C55.731 27.3067 56.3044 27.4267 57.0244 27.48L56.1844 32.4ZM59.2406 5.72L65.2006 4.76V10.96H72.3606V15.92H65.2006V23.32C65.2006 24.5733 65.414 25.5733 65.8406 26.32C66.294 27.0667 67.1873 27.44 68.5206 27.44C69.1606 27.44 69.814 27.3867 70.4806 27.28C71.174 27.1467 71.8006 26.9733 72.3606 26.76L73.2006 31.4C72.4806 31.6933 71.6806 31.9467 70.8006 32.16C69.9206 32.3733 68.8406 32.48 67.5606 32.48C65.934 32.48 64.5873 32.2667 63.5206 31.84C62.454 31.3867 61.6006 30.7733 60.9606 30C60.3206 29.2 59.8673 28.24 59.6006 27.12C59.3606 26 59.2406 24.76 59.2406 23.4V5.72ZM94.1741 31.28C93.1607 31.5733 91.8541 31.84 90.2541 32.08C88.6541 32.3467 86.9741 32.48 85.2141 32.48C83.4274 32.48 81.9341 32.24 80.7341 31.76C79.5607 31.28 78.6274 30.6133 77.9341 29.76C77.2407 28.88 76.7474 27.84 76.4541 26.64C76.1607 25.44 76.0141 24.12 76.0141 22.68V10.96H81.9741V21.96C81.9741 23.88 82.2274 25.2667 82.7341 26.12C83.2407 26.9733 84.1874 27.4 85.5741 27.4C86.0007 27.4 86.4541 27.3867 86.9341 27.36C87.4141 27.3067 87.8407 27.2533 88.2141 27.2V10.96H94.1741V31.28ZM111.449 16.24C110.915 16.1067 110.289 15.9733 109.569 15.84C108.849 15.68 108.075 15.6 107.249 15.6C106.875 15.6 106.422 15.64 105.889 15.72C105.382 15.7733 104.995 15.84 104.729 15.92V32H98.7688V12.08C99.8354 11.7067 101.089 11.36 102.529 11.04C103.995 10.6933 105.622 10.52 107.409 10.52C107.729 10.52 108.115 10.5467 108.569 10.6C109.022 10.6267 109.475 10.68 109.929 10.76C110.382 10.8133 110.835 10.8933 111.289 11C111.742 11.08 112.129 11.1867 112.449 11.32L111.449 16.24ZM113.253 21.64C113.253 19.7733 113.533 18.1467 114.093 16.76C114.68 15.3467 115.44 14.1733 116.373 13.24C117.306 12.3067 118.373 11.6 119.573 11.12C120.8 10.64 122.053 10.4 123.333 10.4C126.32 10.4 128.68 11.32 130.413 13.16C132.146 14.9733 133.013 17.6533 133.013 21.2C133.013 21.5467 133 21.9333 132.973 22.36C132.946 22.76 132.92 23.12 132.893 23.44H119.373C119.506 24.6667 120.08 25.64 121.093 26.36C122.106 27.08 123.466 27.44 125.173 27.44C126.266 27.44 127.333 27.3467 128.373 27.16C129.44 26.9467 130.306 26.6933 130.973 26.4L131.773 31.24C131.453 31.4 131.026 31.56 130.493 31.72C129.96 31.88 129.36 32.0133 128.693 32.12C128.053 32.2533 127.36 32.36 126.613 32.44C125.866 32.52 125.12 32.56 124.373 32.56C122.48 32.56 120.826 32.28 119.413 31.72C118.026 31.16 116.866 30.4 115.933 29.44C115.026 28.4533 114.346 27.2933 113.893 25.96C113.466 24.6267 113.253 23.1867 113.253 21.64ZM127.253 19.36C127.226 18.8533 127.133 18.36 126.973 17.88C126.84 17.4 126.613 16.9733 126.293 16.6C126 16.2267 125.613 15.92 125.133 15.68C124.68 15.44 124.106 15.32 123.413 15.32C122.746 15.32 122.173 15.44 121.693 15.68C121.213 15.8933 120.813 16.1867 120.493 16.56C120.173 16.9333 119.92 17.3733 119.733 17.88C119.573 18.36 119.453 18.8533 119.373 19.36H127.253ZM145.622 32V4.28H164.342V9.52H151.862V14.96H162.942V20.08H151.862V26.76H165.262V32H145.622ZM176.051 27.84C176.638 27.84 177.198 27.8267 177.731 27.8C178.264 27.7733 178.691 27.7333 179.011 27.68V23.16C178.771 23.1067 178.411 23.0533 177.931 23C177.451 22.9467 177.011 22.92 176.611 22.92C176.051 22.92 175.518 22.96 175.011 23.04C174.531 23.0933 174.104 23.2133 173.731 23.4C173.358 23.5867 173.064 23.84 172.851 24.16C172.638 24.48 172.531 24.88 172.531 25.36C172.531 26.2933 172.838 26.9467 173.451 27.32C174.091 27.6667 174.958 27.84 176.051 27.84ZM175.571 10.4C177.331 10.4 178.798 10.6 179.971 11C181.144 11.4 182.078 11.9733 182.771 12.72C183.491 13.4667 183.998 14.3733 184.291 15.44C184.584 16.5067 184.731 17.6933 184.731 19V31.4C183.878 31.5867 182.691 31.8 181.171 32.04C179.651 32.3067 177.811 32.44 175.651 32.44C174.291 32.44 173.051 32.32 171.931 32.08C170.838 31.84 169.891 31.4533 169.091 30.92C168.291 30.36 167.678 29.64 167.251 28.76C166.824 27.88 166.611 26.8 166.611 25.52C166.611 24.2933 166.851 23.2533 167.331 22.4C167.838 21.5467 168.504 20.8667 169.331 20.36C170.158 19.8533 171.104 19.4933 172.171 19.28C173.238 19.04 174.344 18.92 175.491 18.92C176.264 18.92 176.944 18.96 177.531 19.04C178.144 19.0933 178.638 19.1733 179.011 19.28V18.72C179.011 17.7067 178.704 16.8933 178.091 16.28C177.478 15.6667 176.411 15.36 174.891 15.36C173.878 15.36 172.878 15.44 171.891 15.6C170.904 15.7333 170.051 15.9333 169.331 16.2L168.571 11.4C168.918 11.2933 169.344 11.1867 169.851 11.08C170.384 10.9467 170.958 10.84 171.571 10.76C172.184 10.6533 172.824 10.5733 173.491 10.52C174.184 10.44 174.878 10.4 175.571 10.4ZM195.16 27.72C196.254 27.72 197.027 27.6133 197.48 27.4C197.934 27.1867 198.16 26.7733 198.16 26.16C198.16 25.68 197.867 25.2667 197.28 24.92C196.694 24.5467 195.8 24.1333 194.6 23.68C193.667 23.3333 192.814 22.9733 192.04 22.6C191.294 22.2267 190.654 21.7867 190.12 21.28C189.587 20.7467 189.174 20.12 188.88 19.4C188.587 18.68 188.44 17.8133 188.44 16.8C188.44 14.8267 189.174 13.2667 190.64 12.12C192.107 10.9733 194.12 10.4 196.68 10.4C197.96 10.4 199.187 10.52 200.36 10.76C201.534 10.9733 202.467 11.2133 203.16 11.48L202.12 16.12C201.427 15.88 200.667 15.6667 199.84 15.48C199.04 15.2933 198.134 15.2 197.12 15.2C195.254 15.2 194.32 15.72 194.32 16.76C194.32 17 194.36 17.2133 194.44 17.4C194.52 17.5867 194.68 17.7733 194.92 17.96C195.16 18.12 195.48 18.3067 195.88 18.52C196.307 18.7067 196.84 18.92 197.48 19.16C198.787 19.64 199.867 20.12 200.72 20.6C201.574 21.0533 202.24 21.56 202.72 22.12C203.227 22.6533 203.574 23.2533 203.76 23.92C203.974 24.5867 204.08 25.36 204.08 26.24C204.08 28.32 203.294 29.8933 201.72 30.96C200.174 32.0267 197.974 32.56 195.12 32.56C193.254 32.56 191.694 32.4 190.44 32.08C189.214 31.76 188.36 31.4933 187.88 31.28L188.88 26.44C189.894 26.84 190.934 27.16 192 27.4C193.067 27.6133 194.12 27.72 195.16 27.72ZM207.334 5.72L213.294 4.76V10.96H220.454V15.92H213.294V23.32C213.294 24.5733 213.508 25.5733 213.934 26.32C214.388 27.0667 215.281 27.44 216.614 27.44C217.254 27.44 217.908 27.3867 218.574 27.28C219.268 27.1467 219.894 26.9733 220.454 26.76L221.294 31.4C220.574 31.6933 219.774 31.9467 218.894 32.16C218.014 32.3733 216.934 32.48 215.654 32.48C214.028 32.48 212.681 32.2667 211.614 31.84C210.548 31.3867 209.694 30.7733 209.054 30C208.414 29.2 207.961 28.24 207.694 27.12C207.454 26 207.334 24.76 207.334 23.4V5.72ZM248.477 22.68C248.477 24.04 248.317 25.32 247.997 26.52C247.704 27.72 247.171 28.7733 246.397 29.68C245.651 30.56 244.624 31.2667 243.317 31.8C242.037 32.3067 240.411 32.56 238.437 32.56C236.624 32.56 235.064 32.3467 233.757 31.92C232.451 31.4667 231.371 30.9467 230.517 30.36L232.597 25.52C233.371 25.9733 234.197 26.3733 235.077 26.72C235.957 27.0667 236.917 27.24 237.957 27.24C239.477 27.24 240.571 26.8667 241.237 26.12C241.904 25.3733 242.237 24.12 242.237 22.36V4.28H248.477V22.68ZM261.129 27.84C261.716 27.84 262.276 27.8267 262.809 27.8C263.342 27.7733 263.769 27.7333 264.089 27.68V23.16C263.849 23.1067 263.489 23.0533 263.009 23C262.529 22.9467 262.089 22.92 261.689 22.92C261.129 22.92 260.596 22.96 260.089 23.04C259.609 23.0933 259.182 23.2133 258.809 23.4C258.436 23.5867 258.142 23.84 257.929 24.16C257.716 24.48 257.609 24.88 257.609 25.36C257.609 26.2933 257.916 26.9467 258.529 27.32C259.169 27.6667 260.036 27.84 261.129 27.84ZM260.649 10.4C262.409 10.4 263.876 10.6 265.049 11C266.222 11.4 267.156 11.9733 267.849 12.72C268.569 13.4667 269.076 14.3733 269.369 15.44C269.662 16.5067 269.809 17.6933 269.809 19V31.4C268.956 31.5867 267.769 31.8 266.249 32.04C264.729 32.3067 262.889 32.44 260.729 32.44C259.369 32.44 258.129 32.32 257.009 32.08C255.916 31.84 254.969 31.4533 254.169 30.92C253.369 30.36 252.756 29.64 252.329 28.76C251.902 27.88 251.689 26.8 251.689 25.52C251.689 24.2933 251.929 23.2533 252.409 22.4C252.916 21.5467 253.582 20.8667 254.409 20.36C255.236 19.8533 256.182 19.4933 257.249 19.28C258.316 19.04 259.422 18.92 260.569 18.92C261.342 18.92 262.022 18.96 262.609 19.04C263.222 19.0933 263.716 19.1733 264.089 19.28V18.72C264.089 17.7067 263.782 16.8933 263.169 16.28C262.556 15.6667 261.489 15.36 259.969 15.36C258.956 15.36 257.956 15.44 256.969 15.6C255.982 15.7333 255.129 15.9333 254.409 16.2L253.649 11.4C253.996 11.2933 254.422 11.1867 254.929 11.08C255.462 10.9467 256.036 10.84 256.649 10.76C257.262 10.6533 257.902 10.5733 258.569 10.52C259.262 10.44 259.956 10.4 260.649 10.4ZM279.411 32C278.051 29.3333 276.664 26.2133 275.251 22.64C273.864 19.0667 272.544 15.1733 271.291 10.96H277.611C277.877 12 278.184 13.1333 278.531 14.36C278.904 15.56 279.277 16.7867 279.651 18.04C280.051 19.2667 280.437 20.4667 280.811 21.64C281.211 22.8133 281.597 23.88 281.971 24.84C282.317 23.88 282.691 22.8133 283.091 21.64C283.491 20.4667 283.877 19.2667 284.251 18.04C284.651 16.7867 285.024 15.56 285.371 14.36C285.744 13.1333 286.064 12 286.331 10.96H292.491C291.237 15.1733 289.904 19.0667 288.491 22.64C287.104 26.2133 285.731 29.3333 284.371 32H279.411ZM302.332 27.84C302.919 27.84 303.479 27.8267 304.012 27.8C304.546 27.7733 304.972 27.7333 305.292 27.68V23.16C305.052 23.1067 304.692 23.0533 304.212 23C303.732 22.9467 303.292 22.92 302.892 22.92C302.332 22.92 301.799 22.96 301.292 23.04C300.812 23.0933 300.386 23.2133 300.012 23.4C299.639 23.5867 299.346 23.84 299.132 24.16C298.919 24.48 298.812 24.88 298.812 25.36C298.812 26.2933 299.119 26.9467 299.732 27.32C300.372 27.6667 301.239 27.84 302.332 27.84ZM301.852 10.4C303.612 10.4 305.079 10.6 306.252 11C307.426 11.4 308.359 11.9733 309.052 12.72C309.772 13.4667 310.279 14.3733 310.572 15.44C310.866 16.5067 311.012 17.6933 311.012 19V31.4C310.159 31.5867 308.972 31.8 307.452 32.04C305.932 32.3067 304.092 32.44 301.932 32.44C300.572 32.44 299.332 32.32 298.212 32.08C297.119 31.84 296.172 31.4533 295.372 30.92C294.572 30.36 293.959 29.64 293.532 28.76C293.106 27.88 292.892 26.8 292.892 25.52C292.892 24.2933 293.132 23.2533 293.612 22.4C294.119 21.5467 294.786 20.8667 295.612 20.36C296.439 19.8533 297.386 19.4933 298.452 19.28C299.519 19.04 300.626 18.92 301.772 18.92C302.546 18.92 303.226 18.96 303.812 19.04C304.426 19.0933 304.919 19.1733 305.292 19.28V18.72C305.292 17.7067 304.986 16.8933 304.372 16.28C303.759 15.6667 302.692 15.36 301.172 15.36C300.159 15.36 299.159 15.44 298.172 15.6C297.186 15.7333 296.332 15.9333 295.612 16.2L294.852 11.4C295.199 11.2933 295.626 11.1867 296.132 11.08C296.666 10.9467 297.239 10.84 297.852 10.76C298.466 10.6533 299.106 10.5733 299.772 10.52C300.466 10.44 301.159 10.4 301.852 10.4Z" fill="#99C8FD"/>
</svg>
